<svg width="220" height="38" viewBox="0 0 220 38" fill="none" xmlns="http://www.w3.org/2000/svg">
<path d="M0.768 23.088L10.896 16.968V20.376L5.448 23.784L10.896 27.048V30.648L0.768 24.648V23.088ZM22.4071 30V7.28H26.8231V30H22.4071ZM41.1233 17.424C41.0113 17.312 40.8033 17.16 40.4993 16.968C40.2113 16.776 39.8513 16.592 39.4193 16.416C39.0033 16.24 38.5473 16.088 38.0513 15.96C37.5553 15.816 37.0513 15.744 36.5393 15.744C35.6433 15.744 34.9633 15.912 34.4993 16.248C34.0513 16.584 33.8273 17.056 33.8273 17.664C33.8273 18.128 33.9713 18.496 34.2593 18.768C34.5473 19.04 34.9793 19.272 35.5553 19.464C36.1313 19.656 36.8513 19.864 37.7153 20.088C38.8353 20.36 39.8033 20.696 40.6193 21.096C41.4513 21.48 42.0833 21.992 42.5153 22.632C42.9633 23.256 43.1873 24.088 43.1873 25.128C43.1873 26.04 43.0193 26.824 42.6833 27.48C42.3473 28.12 41.8833 28.64 41.2913 29.04C40.6993 29.44 40.0273 29.736 39.2753 29.928C38.5233 30.104 37.7233 30.192 36.8753 30.192C36.0273 30.192 35.1793 30.104 34.3313 29.928C33.4833 29.752 32.6673 29.504 31.8833 29.184C31.0993 28.848 30.3793 28.448 29.7233 27.984L31.1873 25.128C31.3313 25.272 31.5873 25.464 31.9553 25.704C32.3233 25.928 32.7713 26.16 33.2993 26.4C33.8273 26.624 34.4033 26.816 35.0273 26.976C35.6513 27.136 36.2833 27.216 36.9233 27.216C37.8193 27.216 38.4993 27.064 38.9633 26.76C39.4273 26.456 39.6593 26.024 39.6593 25.464C39.6593 24.952 39.4753 24.552 39.1073 24.264C38.7393 23.976 38.2273 23.728 37.5713 23.52C36.9153 23.296 36.1393 23.056 35.2433 22.8C34.1713 22.496 33.2753 22.16 32.5553 21.792C31.8353 21.408 31.2993 20.928 30.9473 20.352C30.5953 19.776 30.4193 19.056 30.4193 18.192C30.4193 17.024 30.6913 16.048 31.2353 15.264C31.7953 14.464 32.5473 13.864 33.4913 13.464C34.4353 13.048 35.4833 12.84 36.6353 12.84C37.4353 12.84 38.1873 12.928 38.8913 13.104C39.6113 13.28 40.2833 13.512 40.9073 13.8C41.5313 14.088 42.0913 14.4 42.5873 14.736L41.1233 17.424ZM49.9471 12.96H53.3071L59.5711 30H56.1631L54.5791 25.752H48.6271L47.0671 30H43.6591L49.9471 12.96ZM53.9791 23.424L51.6271 16.392L49.1791 23.424H53.9791ZM66.0721 12.96H69.4321L75.6961 30H72.2881L70.7041 25.752H64.7521L63.1921 30H59.7841L66.0721 12.96ZM70.1041 23.424L67.7521 16.392L65.3041 23.424H70.1041ZM75.8768 21.36C75.8768 20.32 76.0608 19.304 76.4288 18.312C76.8128 17.304 77.3648 16.392 78.0848 15.576C78.8048 14.744 79.6848 14.088 80.7248 13.608C81.7648 13.112 82.9488 12.864 84.2768 12.864C85.8448 12.864 87.1968 13.208 88.3328 13.896C89.4848 14.584 90.3408 15.48 90.9008 16.584L88.3568 18.336C88.0688 17.696 87.6928 17.192 87.2288 16.824C86.7648 16.44 86.2688 16.176 85.7408 16.032C85.2128 15.872 84.6928 15.792 84.1808 15.792C83.3488 15.792 82.6208 15.96 81.9968 16.296C81.3888 16.632 80.8768 17.072 80.4608 17.616C80.0448 18.16 79.7328 18.768 79.5248 19.44C79.3328 20.112 79.2368 20.784 79.2368 21.456C79.2368 22.208 79.3568 22.936 79.5968 23.64C79.8368 24.328 80.1728 24.944 80.6048 25.488C81.0528 26.016 81.5808 26.44 82.1888 26.76C82.8128 27.064 83.4928 27.216 84.2288 27.216C84.7568 27.216 85.2928 27.128 85.8368 26.952C86.3808 26.776 86.8848 26.496 87.3488 26.112C87.8128 25.728 88.1728 25.232 88.4288 24.624L91.1408 26.184C90.8048 27.032 90.2528 27.752 89.4848 28.344C88.7328 28.936 87.8848 29.384 86.9408 29.688C85.9968 29.992 85.0608 30.144 84.1328 30.144C82.9168 30.144 81.8048 29.896 80.7968 29.4C79.7888 28.888 78.9168 28.216 78.1808 27.384C77.4608 26.536 76.8928 25.592 76.4768 24.552C76.0768 23.496 75.8768 22.432 75.8768 21.36ZM129.891 30V7.28H139.939C140.985 7.28 141.945 7.49333 142.819 7.92C143.715 8.34667 144.483 8.92267 145.123 9.648C145.785 10.3733 146.286 11.184 146.627 12.08C146.99 12.976 147.171 13.8933 147.171 14.832C147.171 15.792 147.001 16.72 146.659 17.616C146.339 18.4907 145.87 19.2587 145.251 19.92C144.633 20.5813 143.907 21.0933 143.075 21.456L148.259 30H143.395L138.723 22.384H134.307V30H129.891ZM134.307 18.512H139.843C140.398 18.512 140.889 18.352 141.315 18.032C141.742 17.6907 142.083 17.2427 142.339 16.688C142.595 16.1333 142.723 15.5147 142.723 14.832C142.723 14.1067 142.574 13.4773 142.275 12.944C141.977 12.3893 141.593 11.952 141.123 11.632C140.675 11.312 140.185 11.152 139.651 11.152H134.307V18.512ZM162.413 27.096V30H150.581V12.96H162.197V15.864H153.893V19.968H161.069V22.656H153.893V27.096H162.413ZM164.995 30V12.96H168.307V30H164.995ZM182.014 17.424C181.902 17.312 181.694 17.16 181.39 16.968C181.102 16.776 180.742 16.592 180.31 16.416C179.894 16.24 179.438 16.088 178.942 15.96C178.446 15.816 177.942 15.744 177.43 15.744C176.534 15.744 175.854 15.912 175.39 16.248C174.942 16.584 174.718 17.056 174.718 17.664C174.718 18.128 174.862 18.496 175.15 18.768C175.438 19.04 175.87 19.272 176.446 19.464C177.022 19.656 177.742 19.864 178.606 20.088C179.726 20.36 180.694 20.696 181.51 21.096C182.342 21.48 182.974 21.992 183.406 22.632C183.854 23.256 184.078 24.088 184.078 25.128C184.078 26.04 183.91 26.824 183.574 27.48C183.238 28.12 182.774 28.64 182.182 29.04C181.59 29.44 180.918 29.736 180.166 29.928C179.414 30.104 178.614 30.192 177.766 30.192C176.918 30.192 176.07 30.104 175.222 29.928C174.374 29.752 173.558 29.504 172.774 29.184C171.99 28.848 171.27 28.448 170.614 27.984L172.078 25.128C172.222 25.272 172.478 25.464 172.846 25.704C173.214 25.928 173.662 26.16 174.19 26.4C174.718 26.624 175.294 26.816 175.918 26.976C176.542 27.136 177.174 27.216 177.814 27.216C178.71 27.216 179.39 27.064 179.854 26.76C180.318 26.456 180.55 26.024 180.55 25.464C180.55 24.952 180.366 24.552 179.998 24.264C179.63 23.976 179.118 23.728 178.462 23.52C177.806 23.296 177.03 23.056 176.134 22.8C175.062 22.496 174.166 22.16 173.446 21.792C172.726 21.408 172.19 20.928 171.838 20.352C171.486 19.776 171.31 19.056 171.31 18.192C171.31 17.024 171.582 16.048 172.126 15.264C172.686 14.464 173.438 13.864 174.382 13.464C175.326 13.048 176.374 12.84 177.526 12.84C178.326 12.84 179.078 12.928 179.782 13.104C180.502 13.28 181.174 13.512 181.798 13.8C182.422 14.088 182.982 14.4 183.478 14.736L182.014 17.424ZM218.92 24.648L208.792 30.648V27.048L214.24 23.784L208.792 20.376V16.968L218.92 23.088V24.648Z" fill="white"/>
<path d="M104.136 15.408V30H99.7196V7.28H103.24L114.984 22.256V7.312H119.4V30H115.72L104.136 15.408ZM206.674 12.96L194.77 30H191.218L203.098 12.96H206.674Z" fill="#2A7AE4"/>
</svg>
